<svg width="17" height="17" viewBox="0 0 17 17" fill="none" xmlns="http://www.w3.org/2000/svg">
<path d="M8.5 17C13.1944 17 17 13.1944 17 8.5C17 3.80558 13.1944 0 8.5 0C3.80558 0 0 3.80558 0 8.5C0 13.1944 3.80558 17 8.5 17Z" fill="#F7931A"/>
<path d="M12.3192 7.44813C12.486 6.33463 11.6376 5.73591 10.4784 5.33641L10.8545 3.82766L9.9365 3.59922L9.56994 5.06813C9.32875 5.00756 9.08119 4.95125 8.83416 4.89494L9.20337 3.41647L8.28537 3.1875L7.90925 4.69572C7.7095 4.65003 7.51294 4.60541 7.32275 4.55759L7.32381 4.55281L6.05731 4.23672L5.81294 5.21741C5.81294 5.21741 6.49453 5.37359 6.48019 5.38316C6.85206 5.47613 6.919 5.72209 6.90784 5.91759L6.47965 7.63619C6.50515 7.64256 6.53809 7.65212 6.57528 7.66647L6.47806 7.64256L5.87775 10.0502C5.83206 10.1628 5.71678 10.3323 5.45647 10.268C5.46603 10.2813 4.78922 10.1017 4.78922 10.1017L4.3334 11.1525L5.52872 11.4506C5.75078 11.5063 5.96859 11.5648 6.18269 11.6195L5.80284 13.1452L6.72031 13.3737L7.09644 11.8649C7.34719 11.9324 7.5905 11.9951 7.8285 12.0546L7.45344 13.557L8.37144 13.7854L8.75128 12.2628C10.3174 12.5593 11.4947 12.4397 11.9903 11.0234C12.3898 9.88338 11.9707 9.22516 11.1467 8.79644C11.747 8.65831 12.1986 8.26359 12.3192 7.44813ZM10.2207 10.3902C9.93756 11.5308 8.01709 10.914 7.39447 10.7594L7.89916 8.738C8.52178 8.89366 10.5177 9.20125 10.2207 10.3902ZM10.5049 7.43166C10.2462 8.46919 8.64822 7.94166 8.13025 7.81256L8.58712 5.97975C9.10509 6.10884 10.7748 6.3495 10.5049 7.43166Z" fill="white"/>
</svg>
