<svg width="21" height="21" viewBox="0 0 21 21" fill="none" xmlns="http://www.w3.org/2000/svg">
<g filter="url(#filter0_d_10_157)">
<path d="M10.5 18C15.1944 18 19 14.1944 19 9.5C19 4.80558 15.1944 1 10.5 1C5.80558 1 2 4.80558 2 9.5C2 14.1944 5.80558 18 10.5 18Z" fill="black"/>
</g>
<path d="M10.5 18C15.1944 18 19 14.1944 19 9.5C19 4.80558 15.1944 1 10.5 1C5.80558 1 2 4.80558 2 9.5C2 14.1944 5.80558 18 10.5 18Z" fill="#0D1E30"/>
<path style="mix-blend-mode:soft-light" d="M10.5 18C15.1944 18 19 14.1944 19 9.5C19 4.80558 15.1944 1 10.5 1C5.80558 1 2 4.80558 2 9.5C2 14.1944 5.80558 18 10.5 18Z" fill="url(#paint0_linear_10_157)"/>
<path d="M10.5 17.7167C15.0379 17.7167 18.7167 14.0379 18.7167 9.50001C18.7167 4.96207 15.0379 1.28334 10.5 1.28334C5.96205 1.28334 2.28333 4.96207 2.28333 9.50001C2.28333 14.0379 5.96205 17.7167 10.5 17.7167Z" stroke="black" stroke-opacity="0.097" stroke-width="1.62219"/>
<g filter="url(#filter1_d_10_157)">
<path d="M10.3442 3.86734C10.6156 3.72737 10.9471 4.05094 10.8032 4.31784C10.7188 4.53544 10.4009 4.59324 10.2388 4.4272C10.0671 4.26854 10.1232 3.95347 10.3442 3.86677V3.86734ZM7.42302 4.17674C7.58792 4.10987 7.79702 4.25834 7.78002 4.4357C7.79702 4.62724 7.55902 4.7689 7.39072 4.67767C7.16802 4.59267 7.19352 4.2368 7.42302 4.17674ZM13.4059 4.68277C13.1481 4.65217 13.1073 4.25324 13.3549 4.17277C13.5476 4.08097 13.7244 4.2538 13.7527 4.43344C13.7119 4.58644 13.5816 4.72697 13.4059 4.68277ZM8.08772 5.3996C8.36369 5.2279 8.75695 5.48347 8.71445 5.7991C8.70029 6.117 8.27075 6.30174 8.02822 6.0864C7.79362 5.91754 7.82932 5.52994 8.08772 5.3996ZM12.2981 5.58207C12.421 5.2704 12.9197 5.2602 13.0597 5.56394C13.1985 5.80024 13.0279 6.0932 12.7814 6.17367C12.4545 6.23374 12.1445 5.8858 12.2981 5.58207ZM9.99229 6.1561C9.98945 5.8875 10.2377 5.68804 10.4966 5.66934C10.6689 5.70334 10.8559 5.7753 10.9296 5.94587C11.0673 6.1816 10.9449 6.50517 10.6972 6.6134C10.5839 6.67574 10.449 6.6525 10.3255 6.64514C10.1368 6.55447 9.97755 6.37484 9.99229 6.1561ZM5.64822 6.5471C5.90039 6.3941 6.24039 6.67177 6.14462 6.9415C6.09249 7.1744 5.77402 7.26904 5.59212 7.12057C5.39775 6.98117 5.42835 6.64627 5.64879 6.54654L5.64822 6.5471ZM14.9767 6.5454C15.1903 6.3822 15.5434 6.56977 15.5173 6.83497C15.532 7.07694 15.2266 7.25997 15.0147 7.1353C14.7812 7.0316 14.7568 6.678 14.9767 6.54597V6.5454ZM11.214 7.02764C11.5665 6.90297 11.9858 7.052 12.1864 7.36197C12.4516 7.73994 12.3111 8.31567 11.8991 8.5327C11.473 8.7894 10.8502 8.57237 10.6921 8.10317C10.5136 7.68384 10.7743 7.1591 11.2135 7.02764H11.214ZM9.14399 7.069C9.53499 6.88767 10.0614 7.03954 10.2501 7.4328C10.4723 7.81587 10.3006 8.3491 9.90332 8.54687C9.50552 8.76957 8.94395 8.6007 8.75185 8.18987C8.53595 7.79207 8.72749 7.25204 9.14399 7.069ZM7.07169 7.766C7.10172 7.51837 7.33915 7.35687 7.57885 7.33987C7.70386 7.35307 7.82069 7.40829 7.91024 7.49651C7.9998 7.58472 8.05677 7.70071 8.07185 7.8255C8.05485 8.0805 7.85482 8.3287 7.58055 8.32757C7.27852 8.35307 7.01389 8.05727 7.07169 7.766ZM13.1928 7.39427C13.5028 7.2169 13.9329 7.47474 13.9193 7.82494C13.9403 8.1961 13.4643 8.45734 13.156 8.23974C12.8353 8.0584 12.8602 7.5484 13.1928 7.39427ZM8.30249 8.70157C8.66402 8.60354 9.07882 8.77127 9.25619 9.0988C9.45055 9.4286 9.37122 9.88647 9.06919 10.129C8.68102 10.4837 7.96645 10.3409 7.76019 9.857C7.52275 9.4133 7.81119 8.8183 8.30192 8.701L8.30249 8.70157ZM12.2278 8.69987C12.5797 8.6007 12.9934 8.73387 13.1826 9.0495C13.4331 9.41047 13.3135 9.94937 12.9412 10.1817C12.5502 10.452 11.9462 10.3103 11.7308 9.8876C11.4702 9.4507 11.7325 8.83304 12.2278 8.69987ZM5.97179 9.11127C6.28459 8.9951 6.63139 9.33454 6.50445 9.63997C6.42739 9.91764 6.02902 10.0208 5.82332 9.81564C5.58249 9.62297 5.67145 9.19514 5.97179 9.11127ZM14.4542 9.5544C14.4483 9.42966 14.492 9.30764 14.5756 9.2149C14.6592 9.12215 14.7761 9.06617 14.9008 9.05914C15.115 9.09314 15.3235 9.26314 15.3065 9.49264C15.3263 9.7958 14.9552 10.0015 14.6922 9.85927C14.5693 9.7975 14.5064 9.6734 14.4542 9.5544ZM4.43329 9.262C4.62142 9.18097 4.85432 9.34134 4.81125 9.54704C4.80105 9.77994 4.45142 9.87004 4.32335 9.6751C4.21002 9.53967 4.27802 9.3317 4.43329 9.26144V9.262ZM16.3044 9.2569C16.437 9.16454 16.6501 9.23084 16.7022 9.38327C16.7912 9.54987 16.628 9.77767 16.4376 9.7499C16.1701 9.7737 16.084 9.37307 16.3044 9.2569ZM9.32475 10.3749C9.82002 10.2486 10.3527 10.6549 10.3561 11.1569C10.3878 11.6641 9.86309 12.1135 9.35649 11.9967C8.96435 11.9344 8.65665 11.5627 8.66969 11.1734C8.66855 10.8005 8.95415 10.4537 9.32475 10.3749ZM11.2866 10.3744C11.7892 10.2361 12.3377 10.6498 12.3298 11.1632C12.3564 11.6607 11.8481 12.0953 11.3517 11.9962C10.8842 11.9372 10.5397 11.4323 10.67 10.9858C10.7358 10.6889 10.9885 10.4475 11.2866 10.3738V10.3744ZM7.50349 10.6832C7.85142 10.6248 8.17782 11.0062 8.03672 11.3315C7.93359 11.6783 7.42132 11.7718 7.19465 11.489C6.92945 11.217 7.12779 10.7206 7.50349 10.6832ZM13.2574 10.6985C13.568 10.5704 13.9488 10.8345 13.925 11.166C13.9374 11.5304 13.4671 11.782 13.1639 11.5689C12.82 11.3779 12.8829 10.8152 13.2574 10.6985ZM14.8656 12.2852C14.7444 12.0625 14.9648 11.7672 15.217 11.8086C15.3416 11.8063 15.4295 11.9032 15.5094 11.9848C15.5258 12.1169 15.5536 12.2744 15.4419 12.3758C15.2906 12.5645 14.9478 12.5107 14.8656 12.2852ZM5.64709 11.8704C5.88225 11.7168 6.22055 11.9463 6.16729 12.216C6.13895 12.4557 5.83295 12.5923 5.63179 12.4563C5.41532 12.3333 5.42325 11.9826 5.64709 11.8704ZM10.2898 12.3707C10.5975 12.2376 10.9896 12.5011 10.9602 12.8343C10.9828 13.2026 10.4983 13.4576 10.1974 13.2366C9.86309 13.0468 9.91919 12.488 10.2898 12.3707ZM8.13985 12.8643C8.40165 12.7289 8.75299 12.9629 8.72919 13.2519C8.73712 13.4888 8.50252 13.6905 8.26452 13.6554C8.06789 13.6514 7.93982 13.4774 7.87635 13.3125C7.87975 13.1329 7.95512 12.9329 8.13985 12.8649V12.8643ZM12.4953 12.8688C12.765 12.7045 13.1481 12.9402 13.1226 13.2485C13.1294 13.5715 12.6964 13.7778 12.4454 13.5658C12.2029 13.3998 12.2323 13.0009 12.4953 12.8688ZM13.2529 14.7105C13.1328 14.5326 13.2739 14.3178 13.4682 14.277C13.6252 14.3082 13.7912 14.4243 13.7578 14.6023C13.7351 14.8442 13.3759 14.9179 13.2529 14.7111V14.7105ZM7.23999 14.5558C7.28759 14.4141 7.40319 14.2742 7.57262 14.311C7.81912 14.328 7.89222 14.6941 7.67632 14.8068C7.48252 14.9355 7.25699 14.7592 7.23999 14.5558ZM10.1413 14.7184C10.1884 14.5088 10.4632 14.4073 10.6445 14.5184C10.7647 14.5694 10.7998 14.7009 10.8304 14.8131C10.8142 14.8713 10.7991 14.9299 10.7851 14.9887C10.7108 15.0749 10.6151 15.1616 10.4915 15.1587C10.262 15.1854 10.0546 14.9298 10.1408 14.7184H10.1413Z" fill="black"/>
</g>
<path d="M10.3442 3.86734C10.6156 3.72737 10.9471 4.05094 10.8032 4.31784C10.7188 4.53544 10.4009 4.59324 10.2388 4.4272C10.0671 4.26854 10.1232 3.95347 10.3442 3.86677V3.86734ZM7.42302 4.17674C7.58792 4.10987 7.79702 4.25834 7.78002 4.4357C7.79702 4.62724 7.55902 4.7689 7.39072 4.67767C7.16802 4.59267 7.19352 4.2368 7.42302 4.17674ZM13.4059 4.68277C13.1481 4.65217 13.1073 4.25324 13.3549 4.17277C13.5476 4.08097 13.7244 4.2538 13.7527 4.43344C13.7119 4.58644 13.5816 4.72697 13.4059 4.68277ZM8.08772 5.3996C8.36369 5.2279 8.75695 5.48347 8.71445 5.7991C8.70029 6.117 8.27075 6.30174 8.02822 6.0864C7.79362 5.91754 7.82932 5.52994 8.08772 5.3996ZM12.2981 5.58207C12.421 5.2704 12.9197 5.2602 13.0597 5.56394C13.1985 5.80024 13.0279 6.0932 12.7814 6.17367C12.4545 6.23374 12.1445 5.8858 12.2981 5.58207ZM9.99229 6.1561C9.98945 5.8875 10.2377 5.68804 10.4966 5.66934C10.6689 5.70334 10.8559 5.7753 10.9296 5.94587C11.0673 6.1816 10.9449 6.50517 10.6972 6.6134C10.5839 6.67574 10.449 6.6525 10.3255 6.64514C10.1368 6.55447 9.97755 6.37484 9.99229 6.1561ZM5.64822 6.5471C5.90039 6.3941 6.24039 6.67177 6.14462 6.9415C6.09249 7.1744 5.77402 7.26904 5.59212 7.12057C5.39775 6.98117 5.42835 6.64627 5.64879 6.54654L5.64822 6.5471ZM14.9767 6.5454C15.1903 6.3822 15.5434 6.56977 15.5173 6.83497C15.532 7.07694 15.2266 7.25997 15.0147 7.1353C14.7812 7.0316 14.7568 6.678 14.9767 6.54597V6.5454ZM11.214 7.02764C11.5665 6.90297 11.9858 7.052 12.1864 7.36197C12.4516 7.73994 12.3111 8.31567 11.8991 8.5327C11.473 8.7894 10.8502 8.57237 10.6921 8.10317C10.5136 7.68384 10.7743 7.1591 11.2135 7.02764H11.214ZM9.14399 7.069C9.53499 6.88767 10.0614 7.03954 10.2501 7.4328C10.4723 7.81587 10.3006 8.3491 9.90332 8.54687C9.50552 8.76957 8.94395 8.6007 8.75185 8.18987C8.53595 7.79207 8.72749 7.25204 9.14399 7.069ZM7.07169 7.766C7.10172 7.51837 7.33915 7.35687 7.57885 7.33987C7.70386 7.35307 7.82069 7.40829 7.91024 7.49651C7.9998 7.58472 8.05677 7.70071 8.07185 7.8255C8.05485 8.0805 7.85482 8.3287 7.58055 8.32757C7.27852 8.35307 7.01389 8.05727 7.07169 7.766ZM13.1928 7.39427C13.5028 7.2169 13.9329 7.47474 13.9193 7.82494C13.9403 8.1961 13.4643 8.45734 13.156 8.23974C12.8353 8.0584 12.8602 7.5484 13.1928 7.39427ZM8.30249 8.70157C8.66402 8.60354 9.07882 8.77127 9.25619 9.0988C9.45055 9.4286 9.37122 9.88647 9.06919 10.129C8.68102 10.4837 7.96645 10.3409 7.76019 9.857C7.52275 9.4133 7.81119 8.8183 8.30192 8.701L8.30249 8.70157ZM12.2278 8.69987C12.5797 8.6007 12.9934 8.73387 13.1826 9.0495C13.4331 9.41047 13.3135 9.94937 12.9412 10.1817C12.5502 10.452 11.9462 10.3103 11.7308 9.8876C11.4702 9.4507 11.7325 8.83304 12.2278 8.69987ZM5.97179 9.11127C6.28459 8.9951 6.63139 9.33454 6.50445 9.63997C6.42739 9.91764 6.02902 10.0208 5.82332 9.81564C5.58249 9.62297 5.67145 9.19514 5.97179 9.11127ZM14.4542 9.5544C14.4483 9.42966 14.492 9.30764 14.5756 9.2149C14.6592 9.12215 14.7761 9.06617 14.9008 9.05914C15.115 9.09314 15.3235 9.26314 15.3065 9.49264C15.3263 9.7958 14.9552 10.0015 14.6922 9.85927C14.5693 9.7975 14.5064 9.6734 14.4542 9.5544ZM4.43329 9.262C4.62142 9.18097 4.85432 9.34134 4.81125 9.54704C4.80105 9.77994 4.45142 9.87004 4.32335 9.6751C4.21002 9.53967 4.27802 9.3317 4.43329 9.26144V9.262ZM16.3044 9.2569C16.437 9.16454 16.6501 9.23084 16.7022 9.38327C16.7912 9.54987 16.628 9.77767 16.4376 9.7499C16.1701 9.7737 16.084 9.37307 16.3044 9.2569ZM9.32475 10.3749C9.82002 10.2486 10.3527 10.6549 10.3561 11.1569C10.3878 11.6641 9.86309 12.1135 9.35649 11.9967C8.96435 11.9344 8.65665 11.5627 8.66969 11.1734C8.66855 10.8005 8.95415 10.4537 9.32475 10.3749ZM11.2866 10.3744C11.7892 10.2361 12.3377 10.6498 12.3298 11.1632C12.3564 11.6607 11.8481 12.0953 11.3517 11.9962C10.8842 11.9372 10.5397 11.4323 10.67 10.9858C10.7358 10.6889 10.9885 10.4475 11.2866 10.3738V10.3744ZM7.50349 10.6832C7.85142 10.6248 8.17782 11.0062 8.03672 11.3315C7.93359 11.6783 7.42132 11.7718 7.19465 11.489C6.92945 11.217 7.12779 10.7206 7.50349 10.6832ZM13.2574 10.6985C13.568 10.5704 13.9488 10.8345 13.925 11.166C13.9374 11.5304 13.4671 11.782 13.1639 11.5689C12.82 11.3779 12.8829 10.8152 13.2574 10.6985ZM14.8656 12.2852C14.7444 12.0625 14.9648 11.7672 15.217 11.8086C15.3416 11.8063 15.4295 11.9032 15.5094 11.9848C15.5258 12.1169 15.5536 12.2744 15.4419 12.3758C15.2906 12.5645 14.9478 12.5107 14.8656 12.2852ZM5.64709 11.8704C5.88225 11.7168 6.22055 11.9463 6.16729 12.216C6.13895 12.4557 5.83295 12.5923 5.63179 12.4563C5.41532 12.3333 5.42325 11.9826 5.64709 11.8704ZM10.2898 12.3707C10.5975 12.2376 10.9896 12.5011 10.9602 12.8343C10.9828 13.2026 10.4983 13.4576 10.1974 13.2366C9.86309 13.0468 9.91919 12.488 10.2898 12.3707ZM8.13985 12.8643C8.40165 12.7289 8.75299 12.9629 8.72919 13.2519C8.73712 13.4888 8.50252 13.6905 8.26452 13.6554C8.06789 13.6514 7.93982 13.4774 7.87635 13.3125C7.87975 13.1329 7.95512 12.9329 8.13985 12.8649V12.8643ZM12.4953 12.8688C12.765 12.7045 13.1481 12.9402 13.1226 13.2485C13.1294 13.5715 12.6964 13.7778 12.4454 13.5658C12.2029 13.3998 12.2323 13.0009 12.4953 12.8688ZM13.2529 14.7105C13.1328 14.5326 13.2739 14.3178 13.4682 14.277C13.6252 14.3082 13.7912 14.4243 13.7578 14.6023C13.7351 14.8442 13.3759 14.9179 13.2529 14.7111V14.7105ZM7.23999 14.5558C7.28759 14.4141 7.40319 14.2742 7.57262 14.311C7.81912 14.328 7.89222 14.6941 7.67632 14.8068C7.48252 14.9355 7.25699 14.7592 7.23999 14.5558ZM10.1413 14.7184C10.1884 14.5088 10.4632 14.4073 10.6445 14.5184C10.7647 14.5694 10.7998 14.7009 10.8304 14.8131C10.8142 14.8713 10.7991 14.9299 10.7851 14.9887C10.7108 15.0749 10.6151 15.1616 10.4915 15.1587C10.262 15.1854 10.0546 14.9298 10.1408 14.7184H10.1413Z" fill="white"/>
<defs>
<filter id="filter0_d_10_157" x="0.377806" y="0.188903" width="20.2444" height="20.2444" filterUnits="userSpaceOnUse" color-interpolation-filters="sRGB">
<feFlood flood-opacity="0" result="BackgroundImageFix"/>
<feColorMatrix in="SourceAlpha" type="matrix" values="0 0 0 0 0 0 0 0 0 0 0 0 0 0 0 0 0 0 127 0" result="hardAlpha"/>
<feOffset dy="0.811097"/>
<feGaussianBlur stdDeviation="0.811097"/>
<feComposite in2="hardAlpha" operator="out"/>
<feColorMatrix type="matrix" values="0 0 0 0 0 0 0 0 0 0 0 0 0 0 0 0 0 0 0.199474 0"/>
<feBlend mode="normal" in2="BackgroundImageFix" result="effect1_dropShadow_10_157"/>
<feBlend mode="normal" in="SourceGraphic" in2="effect1_dropShadow_10_157" result="shape"/>
</filter>
<filter id="filter1_d_10_157" x="2.64474" y="3.02248" width="15.7046" height="14.5715" filterUnits="userSpaceOnUse" color-interpolation-filters="sRGB">
<feFlood flood-opacity="0" result="BackgroundImageFix"/>
<feColorMatrix in="SourceAlpha" type="matrix" values="0 0 0 0 0 0 0 0 0 0 0 0 0 0 0 0 0 0 127 0" result="hardAlpha"/>
<feOffset dy="0.811097"/>
<feGaussianBlur stdDeviation="0.811097"/>
<feColorMatrix type="matrix" values="0 0 0 0 0 0 0 0 0 0 0 0 0 0 0 0 0 0 0.204257 0"/>
<feBlend mode="normal" in2="BackgroundImageFix" result="effect1_dropShadow_10_157"/>
<feBlend mode="normal" in="SourceGraphic" in2="effect1_dropShadow_10_157" result="shape"/>
</filter>
<linearGradient id="paint0_linear_10_157" x1="852" y1="1" x2="852" y2="1701" gradientUnits="userSpaceOnUse">
<stop stop-color="white" stop-opacity="0.5"/>
<stop offset="1" stop-opacity="0.5"/>
</linearGradient>
</defs>
</svg>
