<svg width="18" height="18" viewBox="0 0 18 18" fill="none" xmlns="http://www.w3.org/2000/svg">
<path d="M8.63071 17.2614C13.3973 17.2614 17.2614 13.3973 17.2614 8.63071C17.2614 3.8641 13.3973 0 8.63071 0C3.8641 0 0 3.8641 0 8.63071C0 13.3973 3.8641 17.2614 8.63071 17.2614Z" fill="#627EEA"/>
<path d="M8.89932 2.15767V6.94232L12.9433 8.74937L8.89932 2.15767Z" fill="white" fill-opacity="0.602"/>
<path d="M8.89933 2.15767L4.85477 8.74937L8.89933 6.94232V2.15767Z" fill="white"/>
<path d="M8.89932 11.85V15.101L12.946 9.50241L8.89932 11.85Z" fill="white" fill-opacity="0.602"/>
<path d="M8.89933 15.101V11.8494L4.85477 9.50241L8.89933 15.101Z" fill="white"/>
<path d="M8.89932 11.0975L12.9433 8.74938L8.89932 6.94341V11.0975Z" fill="white" fill-opacity="0.2"/>
<path d="M4.85477 8.74938L8.89933 11.0975V6.94341L4.85477 8.74938Z" fill="white" fill-opacity="0.602"/>
</svg>
