<svg width="17" height="17" viewBox="0 0 17 17" fill="none" xmlns="http://www.w3.org/2000/svg">
<path fill-rule="evenodd" clip-rule="evenodd" d="M8.5 17C3.80534 17 0 13.1947 0 8.5C0 3.80534 3.80534 0 8.5 0C13.1947 0 17 3.80534 17 8.5C17 13.1947 13.1947 17 8.5 17ZM6.33303 11.6875L5.52925 12.5247C6.086 13.2329 7.0125 13.8125 7.87897 13.8125C9.99866 13.8125 11.0319 12.4036 11.0319 10.8189C11.0319 9.31122 10.2584 8.47344 8.738 7.803C7.49806 7.25475 6.95141 6.783 6.95141 5.8225C6.95141 5.12178 7.41891 4.284 8.64503 4.284C9.45891 4.284 9.81112 4.74353 10.1044 4.92628L10.8465 4.15331C10.5373 3.76709 9.605 3.1875 8.68487 3.1875C6.93812 3.1875 5.77788 4.37537 5.77788 5.97497C5.77788 7.42209 6.68472 8.29069 8.1515 8.88463C9.36487 9.418 9.84513 9.96625 9.84513 10.9257C9.84513 11.9616 9.15184 12.6778 7.9645 12.6778C7.16444 12.6778 6.39519 11.8809 6.33356 11.6875H6.33303ZM7.32222 6.21403C7.32222 6.21403 10.4136 5.763 10.3519 8.40331C10.3519 8.40331 10.7227 8.53241 11.0936 9.24056C11.0936 9.24056 11.9595 4.66862 7.26059 5.44159C7.26059 5.44159 7.13681 5.82781 7.32222 6.21403ZM9.42437 10.3997C9.42437 10.3997 6.02491 11.1079 6.12531 8.04472C6.12531 8.04472 5.77309 7.86888 5.48941 7.11822C5.49047 7.11822 4.04547 12.0094 9.39569 11.3199C9.39569 11.3199 9.61084 10.8508 9.42437 10.3997Z" fill="white"/>
</svg>
